 http://img43.imageshack.us/img43/6963/hwwvztw.jpg

Country.......: Canada
Genre.........: Sci-Fi, Horror, Fantasy
Date release..: 17.07.2010 [World]
Director......: Jeffery Scott Lando
Writers.......: Raul Inglis 
Duration......: 92 min.
More..........: http://www.imdb.com/title/tt1512310

Pilot :
Every Halloween, a small hamlet in the deep woods is visited by a fierce goblin, intent on capturing infants and brutally murdering anyone in it's path. 

Cats :
Gil Bellows   	 ...  	Neil Perkins
Tracy Spiridakos 	... 	Nikki Perkins
Camille Sullivan 	... 	Kate Perkins
Donnelly Rhodes 	... 	Charlie
Reilly Dolman 	... 	Kyle
Andrew Wheeler 	... 	Sheriff Milgreen
Colin Cunningham 	... 	Owen
Erin Boyes 	... 	Cammy
Jordan Moore 	... 	Nathan Perkins
Brett Dier 	... 	Matt
Chilton Crane 	... 	Bea Milgreen
Kathleen Duborg 	... 	Judges Wife
Elizabeth Weinstein 	... 	Peasant Woman
Brendan Beiser 	... 	Deputy Perry
Glenn Ennis 	... 	Husband 

Data Technical :
!!! SAMPLE !!!
Audio.....: English
Subtitles.: None
Format                           : AVI
Format/Info                      : Audio Video Interleave
File size                        : 1.19 GiB
Duration                         : 1h 31mn
Overall bit rate                 : 1 852 Kbps
Writing library                  : VirtualDub build 32817/release
Video
ID                               : 0
Format                           : MPEG-4 Visual
Format profile                   : Advanced Simple@L5
Format settings, BVOP            : Yes
Format settings, QPel            : No
Format settings, GMC             : No warppoints
Format settings, Matrix          : Custom
Codec ID                         : XVID
Codec ID/Hint                    : XviD
Duration                         : 1h 31mn
Bit rate                         : 1 392 Kbps
Width                            : 680 pixels
Height                           : 384 pixels
Display aspect ratio             : 16:9
Frame rate                       : 29.970 fps
Color space                      : YUV
Chroma subsampling               : 4:2:0
Bit depth                        : 8 bits
Scan type                        : Progressive
Bits/(Pixel*Frame)               : 0.178
Stream size                      : 914 MiB (75%)
Writing library                  : XviD 1.2.1 (UTC 2008-12-04)
Audio
ID                               : 1
Format                           : AC-3
Format/Info                      : Audio Coding 3
Mode extension                   : CM (complete main)
Codec ID                         : 2000
Duration                         : 1h 31mn
Bit rate mode                    : Constant
Bit rate                         : 448 Kbps
Channel(s)                       : 6 channels
Channel positions                : Front: L C R, Side: L R, LFE
Sampling rate                    : 48.0 KHz
Bit depth                        : 16 bits
Stream size                      : 294 MiB (24%)
Alignment                        : Aligned on interleaves
Interleave, duration             : 33 ms (1.00 video frame)
Interleave, preload duration     : 512 ms

Screen : 
http://img196.imageshack.us/img196/8141/goblin2010s1.jpg 
http://img833.imageshack.us/img833/8919/goblin2010s2.jpg 
http://img11.imageshack.us/img11/9659/goblin2010s3.jpg 
http://img694.imageshack.us/img694/3897/goblin2010s4.jpg 
http://img155.imageshack.us/img155/9812/goblin2010s5.jpg